<?xml version="1.0" encoding="UTF-8"?>
<svg xmlns="http://www.w3.org/2000/svg" width="78" height="50" viewBox="0 0 78 50" fill="none">
  <g clip-path="url(#clip0_2730_944)">
    <path d="M19.602 37.5957C18.6794 36.9494 18.1462 35.7307 19.0363 34.4658L22.1519 30.0571C23.0421 28.7923 24.3773 28.88 25.2999 29.5263C26.2225 30.1726 26.7603 31.3913 25.8655 32.6562L22.75 37.0694C21.8552 38.3297 20.5246 38.242 19.602 37.5957ZM26.9272 41.9489C26.0324 43.2138 24.7018 43.1261 23.7792 42.4798C22.8566 41.8335 22.3234 40.6148 23.2136 39.3499L24.1362 38.0435L27.2518 33.6302L28.4896 31.876C29.3844 30.6111 30.715 30.6988 31.6376 31.3451C32.5602 31.9914 33.0934 33.2101 32.2033 34.475L31.5449 35.4121L27.1915 41.575L26.9272 41.9489ZM32.2913 45.1481C31.3965 46.413 30.0659 46.3253 29.1433 45.679C28.2207 45.0327 27.6876 43.814 28.5777 42.5491L32.9311 36.3862C33.8259 35.1259 35.1565 35.2136 36.0791 35.8599C37.0018 36.5062 37.5349 37.725 36.6448 38.9898L34.8459 41.5381L33.2835 43.7493L32.296 45.1481H32.2913ZM38.3834 47.3224C37.7482 48.2226 36.9786 48.3519 36.4408 48.3057C35.5831 48.2272 34.7624 47.6548 34.4008 46.8746C34.1736 46.3899 34.0392 45.619 34.6697 44.7234L36.2321 42.5121C37.1269 41.2472 38.4575 41.335 39.3801 41.9859C40.3027 42.6322 40.8359 43.8509 39.9458 45.1158L38.3834 47.327V47.3224ZM59.8306 31.8668C59.2649 32.8408 58.0873 33.4733 56.7475 32.6977L51.2628 29.517C50.8595 29.2816 50.3402 29.4201 50.1037 29.8217C49.8673 30.2233 50.0064 30.7404 50.4097 30.9758L55.8944 34.1565L57.327 34.9874C58.6669 35.763 58.6947 37.0925 58.1244 38.0666C57.5542 39.0406 56.3812 39.6731 55.0413 38.8929L53.2657 37.8634L47.73 34.6551C47.3266 34.4196 46.8074 34.5581 46.5709 34.9597C46.3345 35.3614 46.4736 35.8784 46.8769 36.1138L52.4126 39.3222C53.7525 40.0978 53.7803 41.4273 53.21 42.4013C52.6398 43.3754 51.4668 44.0078 50.1269 43.2277L48.7175 42.4106L44.2018 39.7931C43.7985 39.5577 43.2792 39.6961 43.0428 40.0978C42.8063 40.4994 42.9454 41.0164 43.3488 41.2519L47.8644 43.8694C49.2043 44.6495 49.2321 45.9744 48.6619 46.9485C48.0916 47.9225 46.9187 48.555 45.5788 47.7748L41.6797 45.5128C42.6672 43.5785 41.8281 41.6258 40.363 40.5963C39.7093 40.1393 38.9258 39.8623 38.1237 39.83C39.4914 37.7573 38.643 35.5783 37.062 34.4704C36.2739 33.9164 35.2956 33.6256 34.3266 33.7179C34.5677 32.1945 33.7981 30.7819 32.6251 29.9602C31.2482 28.9954 29.2824 28.8246 27.8127 30.1172C27.5253 29.3185 26.9736 28.6307 26.2828 28.146C24.6694 27.0196 22.2632 26.978 20.7703 29.0831L19.0039 31.5806L13.7093 24.9976L22.5784 9.69892L30.2699 12.4364C29.8295 12.8611 29.3659 13.3135 28.8744 13.7983C28.2625 14.3984 27.6273 15.0216 26.9226 15.7048C26.7696 15.8526 26.6769 16.0557 26.6676 16.2726L26.3106 23.802C26.2318 25.4085 26.9179 26.184 27.5021 26.5533C28.587 27.2319 30.2004 27.0611 32.041 26.0732C33.6034 25.233 34.5121 23.3034 35.3883 21.4338C35.5923 20.9952 35.7917 20.5751 35.9911 20.1919C36.158 20.1135 36.3202 20.035 36.4871 19.9611C38.6152 18.9548 40.4511 18.0869 42.2639 19.1302L59.0378 28.7969C60.3776 29.5724 60.4055 30.9019 59.8352 31.876L59.8306 31.8668ZM64.1747 24.716L59.4828 27.0981L43.103 17.6576C40.516 16.1711 37.9846 17.3667 35.75 18.4239C35.5042 18.5393 35.2539 18.6593 35.0082 18.7701C34.8413 18.844 34.7068 18.9686 34.6234 19.1302C34.3591 19.6241 34.1087 20.1504 33.8491 20.709C33.1212 22.2555 32.3006 24.0051 31.2296 24.5821C29.7646 25.3715 28.791 25.3623 28.3969 25.1176C28.026 24.8868 27.975 24.3144 27.9935 23.8758L28.3366 16.6789C28.9532 16.0834 29.5142 15.5294 30.0613 14.9985C34.8969 10.2575 36.3527 8.82642 41.3969 9.92974C44.6608 10.6453 49.7653 11.3377 55.4679 9.67122L54.6241 8.15243L54.4386 8.19859C49.2692 9.61582 44.7721 8.94183 41.7632 8.28169C37.0667 7.25224 34.8134 8.28169 31.6515 11.1346L23.3851 8.19398C23.9739 6.61056 23.3527 4.78709 21.8366 3.91459L15.8373 0.466159C15.0214 -9.55274e-05 14.0709 -0.120121 13.153 0.124547C12.235 0.369215 11.4746 0.950879 11.0018 1.76336L0.472866 19.9196C-0.50538 21.6046 0.0741495 23.7604 1.77101 24.7345L7.7703 28.1829C8.32665 28.5014 8.93399 28.6538 9.5367 28.6538C10.7607 28.6538 11.9522 28.0213 12.6105 26.8903L12.8006 26.5672L17.9886 33.0209L17.6547 33.4963C16.1665 35.6014 17.0196 37.8496 18.6284 38.976C19.3655 39.493 20.2696 39.7792 21.1783 39.7423C20.7425 41.3996 21.5399 42.9738 22.8056 43.8601C23.8488 44.5895 25.2211 44.8665 26.4636 44.4002C26.6305 45.4851 27.2842 46.4407 28.1697 47.0593C29.4586 47.9595 31.2575 48.1672 32.6854 47.1378C32.857 47.6733 33.1583 48.1903 33.5895 48.6612C34.1227 49.2474 34.8274 49.6675 35.597 49.8614C35.9493 49.9537 36.2924 49.9953 36.6262 49.9953C37.8641 49.9953 38.9953 49.3859 39.7696 48.2872L40.7339 46.9208L44.7211 49.2336C45.4212 49.6398 46.112 49.8153 46.7657 49.8153C48.1983 49.8153 49.4408 48.9612 50.1223 47.7979C50.5766 47.027 50.7853 46.1083 50.6694 45.2127C52.3755 45.5174 53.8916 44.5895 54.6751 43.2508C55.1062 42.5168 55.3195 41.6489 55.2361 40.7995C57.0766 41.3073 58.755 40.3424 59.5895 38.916C60.373 37.5726 60.4333 35.7907 59.3113 34.4612C60.1458 34.1196 60.8413 33.4825 61.291 32.7116C62.0838 31.359 62.1348 29.5586 60.9803 28.2244L65.0278 26.1702L64.1701 24.7114L64.1747 24.716Z" fill="#00245B"></path>
    <path d="M64.9908 26.1933L65.3941 26.895C66.0478 28.026 67.244 28.6585 68.4679 28.6585C69.0706 28.6585 69.678 28.5061 70.2344 28.1876L76.2336 24.7392C77.0496 24.2683 77.6338 23.5112 77.8795 22.5972C78.1252 21.6831 78 20.7368 77.5271 19.9243L66.9983 1.76345C66.02 0.0784691 63.8549 -0.503195 62.1627 0.470861L56.1634 3.9193C54.703 4.75948 54.0724 6.486 54.5546 8.02326C54.5824 8.11097 54.6195 8.19406 54.6612 8.27254L55.4077 9.67592L64.1331 24.7299L64.9815 26.1933H64.9908Z" fill="#23AFA0"></path>
    <path d="M0.880861 19.2182L0.472872 19.9199C-0.180837 21.0509 -0.134474 22.3943 0.472872 23.4515C0.774228 23.9685 1.21003 24.4163 1.76638 24.7394L7.76567 28.1879C8.58165 28.6587 9.53671 28.7834 10.45 28.5387C11.3634 28.294 12.1284 27.7124 12.6013 26.8999L23.1301 8.74368C24.1084 7.0587 23.5289 4.90285 21.8366 3.92879L15.8374 0.480358C14.3769 -0.359823 12.5642 -0.041293 11.4654 1.14512C11.4051 1.21436 11.3495 1.28822 11.3031 1.36209L10.4593 2.71007L1.72929 17.7548L0.880861 19.2182Z" fill="#23AFA0"></path>
  </g>
  <defs>
    <clipPath id="clip0_2730_944">
      <rect width="78" height="50" fill="white"></rect>
    </clipPath>
  </defs>
</svg>
